HIERARCHY
ROOT root
{
	OFFSET 0.000000 0.000000 0.000000
	CHANNELS 6 Xposition Yposition Zposition Zrotation Yrotation Xrotation
	JOINT lhip
	{
		OFFSET 0.058581 -0.082280 -0.017664
		CHANNELS 3 Zrotation Yrotation Xrotation
		JOINT lknee
		{
			OFFSET 0.043451 -0.386469 0.008037
			CHANNELS 3 Zrotation Yrotation Xrotation
			JOINT lankle
			{
				OFFSET -0.014790 -0.426874 -0.037428
				CHANNELS 3 Zrotation Yrotation Xrotation
				JOINT ltoe
				{
					OFFSET 0.041054 -0.060286 0.122042
					CHANNELS 3 Zrotation Yrotation Xrotation
					End Site
					{
						OFFSET 0.000000 0.000000 0.000000
					}
				}
			}
		}
	}
	JOINT rhip
	{
		OFFSET -0.060310 -0.090513 -0.013543
		CHANNELS 3 Zrotation Yrotation Xrotation
		JOINT rknee
		{
			OFFSET -0.043257 -0.383688 -0.004843
			CHANNELS 3 Zrotation Yrotation Xrotation
			JOINT rankle
			{
				OFFSET 0.019056 -0.420046 -0.034562
				CHANNELS 3 Zrotation Yrotation Xrotation
				JOINT rtoe
				{
					OFFSET -0.034840 -0.062106 0.130323
					CHANNELS 3 Zrotation Yrotation Xrotation
					End Site
					{
						OFFSET 0.000000 0.000000 0.000000
					}
				}
			}
		}
	}
	JOINT lowerback
	{
		OFFSET 0.004439 0.124404 -0.038385
		CHANNELS 3 Zrotation Yrotation Xrotation
		JOINT upperback
		{
			OFFSET 0.004488 0.137956 0.026820
			CHANNELS 3 Zrotation Yrotation Xrotation
			JOINT chest
			{
				OFFSET -0.002265 0.056032 0.002855
				CHANNELS 3 Zrotation Yrotation Xrotation
				JOINT lowerneck
				{
					OFFSET -0.013390 0.211636 -0.033468
					CHANNELS 3 Zrotation Yrotation Xrotation
					JOINT upperneck
					{
						OFFSET 0.010113 0.088937 0.050410
						CHANNELS 3 Zrotation Yrotation Xrotation
						End Site
						{
							OFFSET 0.000000 0.000000 0.000000
						}
					}
				}
				JOINT lclavicle
				{
					OFFSET 0.071702 0.114000 -0.018898
					CHANNELS 3 Zrotation Yrotation Xrotation
					JOINT lshoulder
					{
						OFFSET 0.122921 0.045205 -0.019046
						CHANNELS 3 Zrotation Yrotation Xrotation
						JOINT lelbow
						{
							OFFSET 0.255332 -0.015649 -0.022946
							CHANNELS 3 Zrotation Yrotation Xrotation
							JOINT lwrist
							{
								OFFSET 0.265709 0.012698 -0.007375
								CHANNELS 3 Zrotation Yrotation Xrotation
								End Site
								{
									OFFSET 0.000000 0.000000 0.000000
								}
							}
						}
					}
				}
				JOINT rclavicle
				{
					OFFSET -0.082954 0.112472 -0.023707
					CHANNELS 3 Zrotation Yrotation Xrotation
					JOINT rshoulder
					{
						OFFSET -0.113228 0.046853 -0.008472
						CHANNELS 3 Zrotation Yrotation Xrotation
						JOINT relbow
						{
							OFFSET -0.260127 -0.014369 -0.031269
							CHANNELS 3 Zrotation Yrotation Xrotation
							JOINT rwrist
							{
								OFFSET -0.269108 0.006794 -0.006027
								CHANNELS 3 Zrotation Yrotation Xrotation
								End Site
								{
									OFFSET 0.000000 0.000000 0.000000
								}
							}
						}
					}
				}
			}
		}
	}
}
MOTION
Frames: 11
Frame Time: 0.033333
-0.208536 -1.893198 0.965015 168.662084 -1.299816 80.903468 5.649463 -1.514998 -6.401053 -7.243955 -10.234110 13.442659 -6.234833 -0.437966 -9.150554 0.000000 -0.000000 0.000000 1.099411 0.686872 9.695585 -1.271181 8.434293 15.453909 -2.957369 0.562066 -28.734981 0.000000 -0.000000 0.000000 1.806761 1.820217 18.565655 2.279511 -1.946425 9.546408 1.848275 -0.264806 2.043578 -2.909832 8.139253 7.063333 -1.215227 2.810462 1.953787 -24.439261 2.610212 2.176774 -55.896910 -0.305800 10.049687 13.202667 -51.816161 7.101322 -0.725835 -11.992158 -21.208213 18.431454 2.752341 6.598032 49.715153 4.058361 10.185304 -12.738807 49.284867 9.063693 7.347514 8.865234 -7.837620 
-0.207722 -1.894095 0.964712 168.749443 -1.307164 80.818571 5.592512 -1.781845 -6.607393 -7.203390 -10.384016 13.934019 -6.364818 -0.200052 -9.192186 0.000000 -0.000000 0.000000 1.251227 0.634558 9.546904 -1.290092 8.552818 15.907070 -3.040530 0.290784 -28.827383 0.000000 -0.000000 0.000000 2.066891 1.705833 18.785900 2.307582 -1.981983 9.311744 1.892961 -0.345696 2.520115 -2.965001 8.316066 5.663456 -2.163957 3.245205 2.310891 -24.470693 2.667059 1.778678 -55.775944 -0.228166 10.196144 12.714404 -51.703040 7.725705 -0.937928 -12.121422 -20.974079 18.585388 2.688164 6.068923 49.889143 4.002598 10.136942 -14.125507 48.626055 7.468354 7.414161 8.686220 -7.650179 
-0.206914 -1.895189 0.964289 168.907695 -1.303263 80.728025 5.525570 -1.903259 -6.880330 -7.204743 -10.519510 14.624990 -6.276304 -0.152008 -9.337390 0.000000 -0.000000 0.000000 1.411813 0.637698 9.476598 -1.281778 8.589369 16.250667 -3.011246 0.013149 -28.885147 0.000000 -0.000000 0.000000 2.200106 1.582132 18.929232 2.424142 -2.056643 9.225083 1.950446 -0.393497 2.810673 -2.966632 8.288883 4.717922 -2.736436 3.434156 2.362660 -24.472672 2.526977 1.585079 -55.702475 -0.198616 10.292950 12.411572 -51.492970 8.088114 -1.155242 -12.071660 -20.923749 18.724054 2.699826 5.657736 50.107935 3.994928 9.961425 -15.547715 48.016574 5.762970 7.498227 8.446162 -7.564022 
-0.205930 -1.896612 0.963807 169.215913 -1.241662 80.527414 5.428818 -1.855270 -7.258181 -7.188217 -10.707229 15.634851 -6.159047 -0.202642 -9.599738 0.000000 -0.000000 0.000000 1.591160 0.588487 9.430268 -1.191225 8.570929 16.680236 -3.145034 -0.171306 -28.953540 0.000000 -0.000000 0.000000 2.325328 1.464751 19.303625 2.625689 -2.316863 9.099617 2.068080 -0.439523 2.785890 -2.999530 8.160917 4.495274 -2.842541 3.479000 1.963614 -24.506213 2.248966 1.761886 -55.771803 -0.126338 10.195431 12.308162 -51.296149 8.265131 -1.156628 -11.954174 -20.983511 18.875517 2.768214 5.514874 50.277599 4.108861 9.508793 -16.877067 47.413684 4.142283 7.218145 8.284456 -7.584653 
-0.205450 -1.897392 0.963478 169.407488 -1.205466 80.413683 5.398866 -2.005106 -7.577931 -7.255612 -10.603211 16.390289 -6.018146 -0.203837 -9.653479 0.000000 -0.000000 0.000000 1.675455 0.585565 9.319725 -1.069815 8.584582 17.081898 -3.219973 -0.329275 -29.042065 0.000000 -0.000000 0.000000 2.341382 1.437406 19.515466 2.775931 -2.503812 9.068180 2.141365 -0.502726 2.796803 -2.944143 8.106923 4.359210 -2.954841 3.529380 1.848634 -24.520591 2.152196 1.847851 -55.884017 -0.117074 10.175654 12.322989 -51.269357 8.311545 -1.112573 -11.922221 -21.029654 18.936531 2.795227 5.398394 50.290971 4.236225 9.370023 -17.439960 47.187854 3.472740 7.075450 8.244481 -7.554766 
-0.205214 -1.898265 0.962958 169.712738 -1.203799 80.287749 5.295102 -2.262117 -8.191487 -7.406646 -10.173768 17.588506 -5.831841 -0.075524 -9.664879 0.000000 -0.000000 0.000000 1.730007 0.614066 9.199076 -1.003007 8.327493 17.510290 -3.334837 -0.465055 -29.286106 0.000000 -0.000000 0.000000 2.277443 1.390890 19.926997 2.924779 -2.754193 8.881740 2.238781 -0.588060 2.882008 -2.841024 8.012820 4.115138 -3.066917 3.549475 1.733654 -24.471663 2.102476 1.894989 -56.050058 -0.102314 10.199172 12.230067 -51.377324 8.480223 -1.098254 -11.923710 -21.178745 18.957372 2.784750 5.226326 50.294717 4.394722 9.309321 -17.934230 47.082378 2.891016 6.915335 8.243882 -7.533339 
-0.205626 -1.898696 0.962427 170.104845 -1.155889 80.219352 5.097839 -2.255824 -9.074696 -7.494646 -9.524321 19.075723 -5.599492 0.405434 -9.845080 0.000000 -0.000000 0.000000 1.801626 0.562050 8.934238 -0.902844 8.279488 18.133666 -3.449101 -0.755696 -29.529651 0.000000 -0.000000 0.000000 2.217980 1.419446 20.278772 3.073326 -3.000237 8.764932 2.348996 -0.659197 2.948979 -2.733663 7.771094 3.968101 -3.031323 3.653354 1.584637 -24.381763 1.837200 2.069909 -56.239853 -0.112108 10.233865 12.104701 -51.607918 8.656477 -0.983754 -11.873194 -21.486678 18.932133 2.881354 5.148537 50.214223 4.265400 9.247966 -18.380496 47.215057 2.304449 6.732661 8.311109 -7.703475 
-0.206615 -1.898111 0.961889 170.459385 -1.078413 80.239843 4.839694 -2.289979 -9.937621 -7.522667 -8.857927 20.530506 -5.182382 0.919803 -10.238253 0.000000 -0.000000 0.000000 1.862849 0.456780 8.879204 -0.972980 8.078404 18.313714 -3.561090 -0.888215 -29.738575 0.000000 -0.000000 0.000000 2.168876 1.493932 20.569097 3.146561 -3.219917 8.587399 2.428731 -0.668249 2.971623 -2.669846 7.534977 4.110869 -2.770132 3.841894 1.370492 -24.294858 1.528677 2.348948 -56.359420 -0.096272 10.300054 11.889924 -51.902886 8.957019 -0.848514 -11.902717 -21.730796 18.925163 3.010095 5.231483 50.069170 3.922028 9.156752 -18.592413 47.438063 2.021201 6.577919 8.398410 -7.952633 
-0.207978 -1.896315 0.961254 170.578937 -0.915212 80.286792 4.684759 -2.484290 -10.331885 -7.526532 -8.743124 21.421248 -4.714470 1.137657 -10.834446 0.000000 -0.000000 0.000000 1.945934 0.375196 8.956203 -1.026452 8.058798 18.309053 -3.586720 -0.905344 -29.846490 0.000000 -0.000000 0.000000 2.170288 1.537153 20.730662 3.131413 -3.328635 8.570446 2.429725 -0.623154 2.958925 -2.619536 7.329888 4.179399 -2.491926 3.902152 1.052720 -24.276263 1.369841 2.457596 -56.388459 -0.051797 10.403862 11.527812 -52.171135 9.379029 -0.795106 -11.930276 -21.830461 18.868159 3.088437 5.305060 49.925758 3.664594 9.096362 -18.331235 47.579144 2.244496 6.582801 8.426692 -8.033219 
-0.210052 -1.892242 0.960311 170.141779 -0.522481 80.381917 4.882283 -2.810239 -9.971295 -7.446702 -9.319607 21.388036 -4.200883 1.363557 -11.905241 0.000000 -0.000000 0.000000 2.157330 0.406615 9.065811 -0.978088 8.444245 18.332073 -3.560504 -0.801761 -29.937426 0.000000 -0.000000 0.000000 2.159804 1.844833 20.492006 3.128074 -3.012224 9.000311 2.541754 -0.757415 3.041193 -2.583951 7.237582 4.141604 -2.271569 3.896470 0.601665 -24.466538 1.244637 2.366630 -56.428401 -0.047681 10.564898 11.209541 -52.336211 9.680081 -0.905434 -11.928348 -21.772056 18.693440 3.274989 5.295337 49.711847 3.443008 9.027616 -17.823320 47.496590 2.729572 6.727799 8.464680 -7.953898 
-0.212004 -1.887755 0.959653 169.440985 -0.173947 80.561956 5.257762 -2.634672 -9.350994 -7.337564 -9.708370 20.669614 -4.055093 1.479895 -12.800985 0.000000 -0.000000 0.000000 2.291320 0.522590 9.031778 -0.898859 8.944994 18.444461 -3.408109 -0.516317 -29.981697 0.000000 -0.000000 0.000000 2.076002 1.846301 20.539751 2.917583 -2.741853 8.926443 2.462012 -0.586524 2.921424 -2.471274 7.447675 4.310364 -1.999434 4.015426 0.406840 -24.565367 1.568154 2.155492 -56.317888 0.308594 10.583007 10.704041 -52.532792 10.173370 -0.980925 -11.954820 -21.717538 18.685492 3.401228 5.470078 49.774932 3.406699 9.041858 -17.442589 47.163272 3.204881 6.786044 8.401325 -7.651332 
